<?xml version="1.0" encoding="UTF-8"?>
<svg width="700pt" height="700pt" version="1.1" viewBox="0 0 700 700" xmlns="http://www.w3.org/2000/svg">
 <path d="m235.64 87.5h-95.637c-9.6602 0-17.5 7.8398-17.5 17.5v52.5c0 9.6602 7.8398 17.5 17.5 17.5h19.164l30.273 302.73c2.6758 26.824 25.27 47.266 52.238 47.266h216.65c26.969 0 49.562-20.441 52.238-47.266l30.273-302.73h19.164c9.6602 0 17.5-7.8398 17.5-17.5v-52.5c0-9.6602-7.8398-17.5-17.5-17.5h-95.637l-19.41-29.121c-9.7461-14.613-26.125-23.379-43.68-23.379h-102.55c-17.555 0-33.934 8.7656-43.68 23.379zm270.03 87.5h-311.33l29.926 299.25c0.89453 8.9414 8.418 15.75 17.414 15.75h216.65c8.9961 0 16.52-6.8086 17.414-15.766zm-103.16 70v175c0 9.6602 7.8398 17.5 17.5 17.5s17.5-7.8398 17.5-17.5v-175c0-9.6602-7.8398-17.5-17.5-17.5s-17.5 7.8398-17.5 17.5zm-140 0v175c0 9.6602 7.8398 17.5 17.5 17.5s17.5-7.8398 17.5-17.5v-175c0-9.6602-7.8398-17.5-17.5-17.5s-17.5 7.8398-17.5 17.5zm70 0v175c0 9.6602 7.8398 17.5 17.5 17.5s17.5-7.8398 17.5-17.5v-175c0-9.6602-7.8398-17.5-17.5-17.5s-17.5 7.8398-17.5 17.5zm-175-105h385v-17.5h-385v17.5zm264.79-52.5-6.457-9.7109c-3.2578-4.8672-8.7148-7.7891-14.562-7.7891h-102.55c-5.8477 0-11.305 2.9219-14.562 7.7891l-6.457 9.7109z" fill-rule="evenodd"/>
</svg>
